<?xml version="1.0"?>
<svg xmlns="http://www.w3.org/2000/svg" id="Capa_1" enable-background="new 0 0 512 512" height="512px" viewBox="0 0 512 512" width="512px" class=""><g><path d="m66.849 465.046-11.439 11.439c-5.779 5.77-15.169 5.77-20.938 0-5.78-5.78-5.79-15.129 0-20.908l11.299-11.299c-6.54-7.659-12.439-15.949-17.599-24.818l-14.909 14.909c-17.509 17.499-17.519 45.827 0 63.335 17.469 17.459 45.887 17.459 63.346 0l15.409-15.399c-8.88-4.97-17.3-10.749-25.169-17.259z" fill="#ee3616" data-original="#EE3616" class="active-path" data-old_color="#ee3616" style="fill:#B0AAAA"/><path d="m21.735 418.235c-47.204-85.803-14.929-193.371 71.717-239.041l82.881-43.723c7.318-3.866 16.408-1.058 20.272 6.281l15.806 30.035 53.14-27.933-15.832-30.086c-3.855-7.328-1.045-16.392 6.28-20.253l171.847-90.58c7.325-3.86 16.394-1.055 20.258 6.268l62.159 117.78c3.876 7.343 1.044 16.442-6.312 20.291-.148.078-131.074 68.572-131.223 68.648-25.154 12.942-37.688 41.76-29.801 68.521 21.801 73.967-7.43 159.175-80.877 201.19-85.217 48.735-192.974 18.666-240.315-67.398z" fill="#ee3616" data-original="#EE3616" class="active-path" data-old_color="#ee3616" style="fill:#B0AAAA"/><path d="m510.267 126.98-62.165-117.782c-3.86-7.319-12.929-10.119-20.259-6.26l-171.848 90.574c-7.32 3.86-10.129 12.929-6.28 20.259l15.839 30.078-53.146 27.938-15.808-30.038c-3.86-7.339-12.949-10.139-20.269-6.28l-82.884 43.727c-.71.37-1.42.75-2.12 1.14l36.497 65.255 14.669 26.238 67.195 120.171 14.649 26.198 37.717 67.435c73.445-42.017 102.673-127.221 80.874-201.196-7.889-26.758 4.64-55.576 29.798-68.515.15-.08 131.071-68.575 131.221-68.655 7.36-3.838 10.19-12.937 6.32-20.287z" fill="#cb0010" data-original="#CB0010" class="" data-old_color="#cb0010" style="fill:#F0DFDF"/><path d="m268.701 282.378c-25.014-48.475-85.179-66.926-134.68-40.392-48.941 26.234-68.438 86.952-43.465 135.35 24.959 48.365 85.07 66.983 134.68 40.391 48.94-26.235 68.438-86.952 43.465-135.349zm-57.638 108.909c-34.887 18.702-76.614 5.691-93.849-27.708-17.508-33.927-3.61-76.613 30.979-95.153 34.649-18.576 76.495-5.921 93.849 27.708v-.001c17.507 33.927 3.61 76.614-30.979 95.154z" fill="#fcbe29" data-original="#FCBE29" class="" data-old_color="#fcbe29" style="fill:#F0DFDF"/><path d="m268.704 282.379c-25.018-48.477-85.184-66.925-134.68-40.397-2.12 1.14-4.19 2.34-6.2 3.61l14.669 26.238c1.83-1.21 3.73-2.35 5.7-3.4 34.648-18.579 76.485-5.93 93.853 27.698 17.499 33.928 3.61 76.614-30.988 95.163-.45.24-.91.48-1.37.71l14.649 26.198c.3-.15.6-.31.9-.47 48.937-26.238 68.436-86.953 43.467-135.35z" fill="#fe9022" data-original="#FE9022" class="" data-old_color="#fe9022" style="fill:#B0AAAA"/><g fill="#fcbe29"><path d="m176.807 71.879-22.174-42.14c-3.857-7.331-1.042-16.401 6.289-20.258 7.331-3.858 16.4-1.042 20.258 6.289l22.174 42.14c3.857 7.331 1.042 16.401-6.289 20.258-7.325 3.856-16.398 1.046-20.258-6.289z" data-original="#000000" class="" data-old_color="#000000" style="fill:#F0DFDF"/><path d="m156.18 119.912-45.281-9.833c-8.094-1.758-13.231-9.745-11.474-17.841 1.759-8.094 9.747-13.236 17.841-11.474l45.281 9.833c8.095 1.758 13.231 9.745 11.474 17.841-1.762 8.108-9.763 13.231-17.841 11.474z" data-original="#000000" class="" data-old_color="#000000" style="fill:#F0DFDF"/><path d="m235.076 76.349c-7.665-3.139-11.335-11.899-8.196-19.564l17.823-43.522c3.139-7.665 11.897-11.337 19.564-8.196 7.665 3.139 11.335 11.899 8.196 19.564l-17.823 43.522c-3.14 7.669-11.904 11.335-19.564 8.196z" data-original="#000000" class="" data-old_color="#000000" style="fill:#F0DFDF"/></g></g> </svg>
